<svg xmlns="http://www.w3.org/2000/svg" xmlns:xlink="http://www.w3.org/1999/xlink" width="24" height="24"  viewBox="0 0 64 64"><defs><style>.cls-1{fill:url(#linear-gradient);}.cls-2{fill:url(#linear-gradient-2);}</style><linearGradient id="linear-gradient" x1="7.8" y1="32" x2="49.41" y2="32" gradientUnits="userSpaceOnUse"><stop offset="0" stop-color="#17a6d7"></stop><stop offset="1" stop-color="#9d31fe"></stop></linearGradient><linearGradient id="linear-gradient-2" x1="53.2" y1="31.99" x2="56.2" y2="31.99" xlink:href="#linear-gradient"></linearGradient></defs><g id="Layer_34" data-name="Layer 34"><path class="cls-1" d="M48.76,30.76,10.15,4.41A1.52,1.52,0,0,0,7.8,5.65v52.7a1.5,1.5,0,0,0,2.35,1.24L48.76,33.24A1.51,1.51,0,0,0,48.76,30.76Zm-38,24.75v-47L45.25,32Z"></path><path class="cls-2" d="M54.7,4.15a1.5,1.5,0,0,0-1.5,1.5v52.7a1.5,1.5,0,0,0,3,0V5.65A1.5,1.5,0,0,0,54.7,4.15Z"></path></g></svg>