<svg xmlns="http://www.w3.org/2000/svg" xmlns:xlink="http://www.w3.org/1999/xlink"
width="24" height="24" viewBox="0 0 64 64"><defs><style>.cls-1{fill:url(#linear-gradient);}.cls-2{fill:url(#linear-gradient-2);}</style><linearGradient id="linear-gradient" x1="14.59" y1="32" x2="56.2" y2="32" gradientUnits="userSpaceOnUse"><stop offset="0" stop-color="#17a6d7"></stop><stop offset="1" stop-color="#9d31fe"></stop></linearGradient><linearGradient id="linear-gradient-2" x1="7.8" y1="31.99" x2="10.8" y2="31.99" xlink:href="#linear-gradient"></linearGradient></defs><g id="Layer_35" data-name="Layer 35"><path class="cls-1" d="M55.4,4.32a1.51,1.51,0,0,0-1.55.09L15.24,30.76a1.51,1.51,0,0,0,0,2.48L53.85,59.59a1.51,1.51,0,0,0,2.35-1.24V5.65A1.51,1.51,0,0,0,55.4,4.32ZM53.2,55.51,18.75,32,53.2,8.49Z"></path><path class="cls-2" d="M9.3,4.15a1.5,1.5,0,0,0-1.5,1.5v52.7a1.5,1.5,0,0,0,3,0V5.65A1.5,1.5,0,0,0,9.3,4.15Z"></path></g></svg>