<svg xmlns="http://www.w3.org/2000/svg" version="1.1" id="Layer_1"  xmlns:xlink="http://www.w3.org/1999/xlink" x="0px" y="0px" width="24" height="24" viewBox="0 0 24 24" style="enable-background:new 0 0 24 24;" xml:space="preserve">
<style type="text/css">
	.st0{fill:url(#SVGID_1_);}
	.st1{fill:url(#SVGID_2_);}
	.st2{fill:url(#SVGID_3_);}
	.st3{fill:url(#SVGID_4_);}
	.st4{fill:url(#SVGID_5_);}
	.st5{fill:url(#SVGID_6_);}
	.st6{fill:url(#SVGID_7_);}
	.st7{fill:url(#SVGID_8_);}
	.st8{fill:url(#SVGID_9_);}
	.st9{fill:url(#SVGID_10_);}
	.st10{fill:url(#SVGID_11_);}
	.st11{fill:url(#SVGID_12_);}
	.st12{fill:url(#SVGID_13_);}
	.st13{fill:url(#SVGID_14_);}
	.st14{fill:url(#SVGID_15_);}
	.st15{fill:url(#SVGID_16_);}
	.st16{fill:url(#SVGID_17_);}
	.st17{fill:url(#SVGID_18_);}
	.st18{fill:url(#SVGID_19_);}
	.st19{fill:url(#SVGID_20_);}
	.st20{fill:url(#SVGID_21_);}
	.st21{fill:url(#SVGID_22_);}
	.st22{fill:url(#SVGID_23_);}
	.st23{fill:url(#SVGID_24_);}
	.st24{fill:url(#SVGID_25_);}
	.st25{fill:url(#SVGID_26_);}
	.st26{fill:url(#SVGID_27_);}
	.st27{fill:url(#SVGID_28_);}
	.st28{fill:url(#SVGID_29_);}
	.st29{fill:url(#SVGID_30_);}
	.st30{fill:url(#SVGID_31_);}
	.st31{fill:url(#SVGID_32_);}
</style>
<linearGradient id="SVGID_1_" gradientUnits="userSpaceOnUse" x1="2.4711" y1="12.7477" x2="21.5312" y2="12.7477">
	<stop offset="0" style="stop-color:#1245C6"></stop>
	<stop offset="1" style="stop-color:#9909B7"></stop>
</linearGradient>
<path class="st0" d="M10.5,5.8c-0.2,0-0.4,0.1-0.5,0.2L6.2,9.8h-3C3,9.8,2.8,9.9,2.7,10c-0.1,0.1-0.2,0.3-0.2,0.5v4.4
	c0,0.2,0.1,0.4,0.2,0.5c0.1,0.1,0.3,0.2,0.5,0.2h3l3.8,3.8c0.1,0.1,0.3,0.2,0.5,0.2c0.2,0,0.4-0.1,0.5-0.2c0.1-0.1,0.2-0.3,0.2-0.5
	V6.5c0-0.2-0.1-0.4-0.2-0.5C10.9,5.9,10.7,5.8,10.5,5.8z M15.2,14.4c0.3-0.5,0.5-1,0.5-1.6s-0.2-1.1-0.5-1.6
	c-0.3-0.5-0.8-0.9-1.3-1.1c-0.1,0-0.2-0.1-0.3-0.1c-0.2,0-0.4,0.1-0.5,0.2c-0.1,0.1-0.2,0.3-0.2,0.5c0,0.2,0,0.3,0.1,0.4
	c0.1,0.1,0.2,0.2,0.3,0.3c0.1,0.1,0.3,0.2,0.4,0.3c0.1,0.1,0.2,0.2,0.3,0.4c0.1,0.2,0.1,0.4,0.1,0.7c0,0.3,0,0.5-0.1,0.7
	c-0.1,0.2-0.2,0.3-0.3,0.4c-0.1,0.1-0.3,0.2-0.4,0.3c-0.1,0.1-0.2,0.2-0.3,0.3c-0.1,0.1-0.1,0.2-0.1,0.4c0,0.2,0.1,0.4,0.2,0.5
	c0.1,0.1,0.3,0.2,0.5,0.2c0.1,0,0.2,0,0.3-0.1C14.4,15.2,14.9,14.9,15.2,14.4z M17.6,16c0.6-1,1-2.1,1-3.2c0-1.2-0.3-2.2-1-3.2
	c-0.6-1-1.5-1.7-2.6-2.2c-0.1,0-0.2-0.1-0.3-0.1c-0.2,0-0.4,0.1-0.5,0.2C14.1,7.7,14,7.8,14,8c0,0.3,0.1,0.5,0.4,0.7
	c0.4,0.2,0.7,0.4,0.9,0.5c0.6,0.4,1,0.9,1.3,1.6c0.3,0.6,0.5,1.3,0.5,2c0,0.7-0.2,1.4-0.5,2c-0.3,0.6-0.8,1.1-1.3,1.6
	c-0.2,0.1-0.4,0.3-0.9,0.5c-0.3,0.2-0.4,0.4-0.4,0.7c0,0.2,0.1,0.4,0.2,0.5c0.1,0.1,0.3,0.2,0.5,0.2c0.1,0,0.2,0,0.3-0.1
	C16.1,17.7,17,17,17.6,16z M20.1,7.9c-1-1.5-2.3-2.6-3.9-3.2c-0.1,0-0.2-0.1-0.3-0.1c-0.2,0-0.4,0.1-0.5,0.2
	c-0.1,0.1-0.2,0.3-0.2,0.5c0,0.3,0.1,0.5,0.4,0.7c0.1,0,0.1,0.1,0.3,0.1c0.1,0,0.2,0.1,0.3,0.1c0.4,0.2,0.7,0.4,0.9,0.6
	c0.9,0.7,1.7,1.6,2.2,2.6c0.5,1,0.8,2.1,0.8,3.3c0,1.2-0.3,2.3-0.8,3.3c-0.5,1-1.3,1.9-2.2,2.6c-0.3,0.2-0.6,0.4-0.9,0.6
	c-0.1,0-0.1,0.1-0.3,0.1c-0.1,0-0.2,0.1-0.3,0.1c-0.3,0.2-0.4,0.4-0.4,0.7c0,0.2,0.1,0.4,0.2,0.5c0.1,0.1,0.3,0.2,0.5,0.2
	c0.1,0,0.2,0,0.3-0.1c1.6-0.7,2.9-1.8,3.9-3.2c1-1.5,1.5-3.1,1.5-4.8S21,9.4,20.1,7.9z"></path>
</svg>